<?xml version="1.0" standalone="no"?>
<!DOCTYPE svg PUBLIC "-//W3C//DTD SVG 20010904//EN"
 "http://www.w3.org/TR/2001/REC-SVG-20010904/DTD/svg10.dtd">
<svg version="1.0" xmlns="http://www.w3.org/2000/svg"
 width="1304.000000pt" height="1139.000000pt" viewBox="0 0 1304.000000 1139.000000"
 preserveAspectRatio="xMidYMid meet">

<g transform="translate(0.000000,1139.000000) scale(0.100000,-0.100000)"
fill="#000000" stroke="none">
<path d="M6610 11259 c-136 -7 -184 -18 -395 -86 -456 -148 -935 -380 -1360
-660 -365 -241 -633 -450 -1021 -799 -94 -85 -183 -163 -197 -175 -32 -24 0
-38 -336 153 -381 218 -395 223 -543 216 -90 -4 -96 -5 -198 -59 -126 -67
-811 -457 -1144 -651 -439 -256 -454 -267 -532 -390 l-45 -69 3 -1002 c3
-1000 3 -1002 25 -1066 l22 -64 -90 -186 c-164 -338 -174 -378 -174 -716 0
-271 1 -276 83 -440 87 -176 194 -319 342 -458 432 -407 1203 -723 2100 -861
308 -48 455 -58 884 -65 l409 -6 -152 -157 -151 -156 -88 -7 c-334 -24 -422
-40 -539 -94 -90 -42 -162 -99 -308 -242 l-130 -127 -1309 -8 -1309 -9 -53
-59 c-72 -79 -96 -132 -97 -209 -1 -78 31 -150 100 -225 l48 -53 2278 -6 2277
-6 0 -33 c0 -171 132 -367 300 -447 108 -50 166 -61 315 -61 157 1 244 19 358
72 194 91 349 231 458 415 l34 57 597 -2 c397 -2 601 -6 607 -13 8 -8 6 -32
-4 -80 -36 -169 -30 -436 16 -670 96 -485 446 -983 899 -1278 223 -144 532
-268 781 -311 228 -40 670 -45 879 -11 451 75 919 288 1300 594 216 174 483
462 629 680 217 323 411 758 515 1153 69 264 128 590 145 808 17 218 24 723
12 965 -30 635 -193 1342 -450 1955 -91 216 -286 592 -374 723 -21 32 -37 60
-35 61 1 2 75 33 164 70 178 75 274 130 274 158 0 37 -90 89 -667 386 -211
108 -383 199 -383 202 1 3 65 48 142 100 78 52 170 122 205 155 54 52 63 65
63 96 0 69 -52 100 -274 164 -239 69 -643 150 -852 171 -35 4 -64 9 -64 11 0
2 74 83 164 178 91 96 179 195 195 219 40 57 42 106 5 135 -48 38 -118 44
-464 38 -345 -6 -480 -19 -774 -72 -81 -15 -149 -25 -152 -22 -3 2 41 99 96
213 157 322 174 378 126 409 -37 25 -87 29 -192 15 -252 -31 -587 -140 -965
-311 -108 -49 -202 -89 -208 -89 -15 0 -20 -18 62 229 70 209 145 462 167 563
25 112 -19 170 -143 184 -154 18 -519 -67 -779 -181 -120 -53 -371 -187 -497
-267 -52 -32 -96 -57 -98 -55 -2 2 3 46 12 98 31 198 47 426 49 694 1 291 -3
325 -59 450 -40 92 -144 186 -235 213 -48 15 -152 18 -300 11z m157 -385 c41
-30 53 -64 66 -176 8 -75 8 -156 -1 -312 -26 -460 -74 -789 -189 -1301 -90
-401 -93 -418 -87 -452 4 -22 12 -33 23 -33 29 0 104 54 155 111 75 85 223
313 282 435 62 130 90 159 272 282 212 143 481 286 636 337 105 34 126 38 126
22 0 -7 -63 -213 -140 -456 -77 -244 -140 -447 -140 -451 0 -17 43 -20 366
-30 437 -13 585 -31 906 -111 668 -167 1246 -475 1783 -950 821 -726 1398
-1814 1564 -2950 50 -342 75 -832 60 -1183 -35 -856 -289 -1614 -727 -2176
-88 -112 -274 -303 -392 -402 -241 -202 -592 -396 -858 -474 -239 -70 -415
-88 -761 -81 -343 7 -465 34 -736 160 -195 91 -328 181 -474 321 -540 521
-645 1293 -255 1878 36 54 95 129 132 166 65 66 180 158 187 150 3 -2 -5 -49
-16 -103 -26 -126 -22 -253 10 -336 27 -70 109 -163 191 -215 33 -22 60 -42
60 -47 0 -4 -13 -31 -30 -60 -168 -298 -119 -707 116 -977 209 -239 490 -360
839 -360 199 0 350 33 514 111 435 207 721 603 812 1124 29 168 31 442 5 615
-64 414 -218 748 -485 1048 -226 254 -552 453 -747 456 -46 0 -58 -4 -85 -29
-29 -28 -31 -33 -25 -85 7 -63 44 -229 146 -649 72 -297 110 -492 110 -559 0
-114 -59 -186 -173 -212 -53 -11 -382 -44 -447 -44 -44 0 -235 68 -273 97 -15
11 -13 22 22 122 21 61 55 148 76 194 l39 83 -58 167 c-197 563 -216 630 -237
846 -16 155 -5 418 20 519 52 201 209 401 381 485 121 59 220 82 375 88 215 8
370 -29 593 -144 253 -131 484 -333 673 -593 84 -115 157 -238 252 -425 100
-198 132 -250 163 -264 37 -17 48 8 41 93 -16 188 -88 438 -182 631 -102 210
-224 375 -408 551 -172 166 -336 274 -567 376 -197 87 -298 103 -609 95 -243
-5 -296 -16 -450 -88 -293 -137 -482 -346 -589 -650 -40 -114 -52 -206 -52
-409 0 -206 13 -345 46 -474 14 -54 23 -100 20 -103 -4 -4 -163 36 -371 94
l-100 28 0 205 c0 214 -5 251 -56 388 -58 158 -216 376 -427 590 -295 298
-758 584 -821 508 -34 -40 22 -111 396 -503 469 -493 555 -617 584 -842 14
-110 6 -148 -56 -276 -102 -212 -335 -510 -650 -834 -359 -368 -526 -492 -788
-582 l-98 -34 -51 -90 c-129 -229 -242 -336 -418 -395 -54 -18 -82 -21 -166
-18 -92 3 -106 6 -150 34 -36 22 -56 44 -77 86 -42 82 -39 136 14 246 36 74
57 102 143 187 110 109 167 150 380 271 86 49 159 98 191 129 61 60 643 786
697 869 38 59 68 139 68 181 0 59 -88 136 -424 373 -307 216 -410 275 -443
253 -6 -3 -28 -46 -51 -94 -109 -233 -383 -401 -836 -513 -304 -74 -626 -108
-1036 -108 -756 1 -1359 111 -2015 369 -200 78 -357 161 -543 285 -162 109
-350 256 -339 266 2 2 28 -6 58 -20 116 -51 425 -142 714 -209 219 -52 446
-88 750 -119 194 -20 903 -17 1095 5 472 53 832 143 1105 276 209 101 388 259
462 407 39 79 56 175 33 189 -6 4 -79 -34 -172 -91 -89 -54 -215 -121 -279
-150 -279 -125 -639 -219 -1072 -281 -182 -26 -1122 -26 -1342 0 -470 56
-1026 190 -1405 338 -142 55 -176 77 -196 125 -19 44 -18 157 2 251 24 117
142 395 206 485 19 27 20 27 55 13 19 -8 140 -76 269 -150 732 -424 1183 -677
1232 -691 66 -20 148 -14 213 15 52 22 148 77 714 411 864 509 980 587 1064
719 l31 48 0 954 c-1 525 -5 984 -9 1021 -16 125 -76 207 -216 299 -38 25
-185 112 -325 194 -140 81 -257 149 -260 152 -8 8 91 96 316 281 519 426 969
721 1469 962 281 136 496 219 729 280 146 38 149 39 233 36 55 -1 79 -6 100
-22z m-3832 -1372 c47 -23 199 -108 337 -190 139 -82 395 -231 568 -332 377
-218 499 -297 523 -340 17 -28 20 -70 29 -358 10 -341 3 -1284 -11 -1385 -6
-48 -14 -64 -47 -98 -71 -72 -267 -196 -848 -534 -477 -277 -646 -365 -700
-365 -36 0 -149 58 -566 290 -514 286 -889 504 -934 541 -21 18 -47 51 -57 73
-34 78 -39 212 -39 1030 l0 794 51 46 c28 25 112 83 187 129 210 128 1116 656
1212 705 80 42 89 44 148 39 45 -3 86 -16 147 -45z m3028 -5411 c28 -16 93
-45 143 -65 50 -21 103 -47 118 -60 l28 -22 -43 -54 c-23 -30 -88 -107 -143
-170 -202 -229 -246 -266 -451 -375 -144 -76 -223 -128 -315 -205 l-75 -63
-220 7 c-120 3 -224 11 -229 16 -12 12 20 42 334 318 294 258 503 447 643 580
90 85 127 115 155 121 1 1 26 -12 55 -28z m1942 -671 c115 -38 213 -74 218
-79 21 -21 -116 -207 -175 -237 -28 -14 -64 -16 -292 -11 -144 3 -276 9 -294
14 l-34 8 174 188 c95 103 178 187 183 187 6 0 105 -31 220 -70z m2523 -395
c112 -127 180 -485 138 -735 -57 -347 -252 -609 -536 -722 -109 -43 -212 -61
-310 -55 -95 6 -214 41 -288 84 -72 42 -156 127 -191 192 -110 207 -23 513
178 620 88 47 141 60 286 72 76 6 155 19 190 31 186 62 340 227 443 475 19 46
38 83 43 83 4 0 25 -20 47 -45z"/>
<path d="M2640 8770 c-150 -21 -336 -98 -459 -189 -134 -100 -281 -273 -355
-419 -14 -29 -41 -94 -58 -145 -29 -85 -32 -105 -36 -257 -5 -187 7 -304 42
-406 68 -201 213 -397 396 -536 87 -67 268 -154 360 -175 116 -26 397 -23 513
5 334 82 643 371 756 708 58 174 53 497 -10 689 -110 331 -416 620 -746 706
-90 23 -300 33 -403 19z m303 -375 c248 -52 455 -250 522 -500 25 -92 31 -267
12 -342 -19 -71 -72 -182 -127 -263 -78 -116 -254 -249 -374 -285 -60 -18
-289 -20 -368 -4 -117 24 -270 123 -361 234 -172 208 -213 494 -108 746 38 90
145 236 215 291 80 64 163 97 331 132 47 9 195 5 258 -9z"/>
<path d="M552 2095 c-209 -58 -341 -260 -342 -520 -1 -376 360 -616 693 -462
109 50 217 181 217 262 0 25 -1 25 -88 25 l-88 0 -54 -55 c-30 -30 -69 -62
-88 -71 -45 -21 -145 -21 -200 1 -56 23 -136 111 -157 174 -17 52 -22 184 -10
242 28 131 142 229 265 229 77 0 129 -25 191 -92 l46 -49 69 12 c86 14 104 24
104 53 0 33 -70 136 -118 174 -22 18 -67 44 -99 59 -50 23 -73 27 -173 30 -80
2 -131 -2 -168 -12z"/>
<path d="M1220 1595 l0 -505 100 0 100 0 0 218 c0 189 3 222 19 257 30 65 53
80 128 80 110 0 120 -27 129 -337 l7 -218 99 0 98 0 0 198 c-1 306 -20 404
-96 471 -56 49 -119 66 -212 56 -64 -7 -133 -33 -147 -55 -19 -32 -25 5 -25
165 l0 175 -100 0 -100 0 0 -505z"/>
<path d="M2810 1595 l0 -505 100 0 100 0 1 278 c1 152 4 301 7 331 l7 54 54
-139 c30 -77 80 -204 112 -284 l57 -145 90 -3 c80 -2 92 0 101 16 16 30 221
560 221 571 0 6 5 11 10 11 6 0 10 -48 10 -122 0 -68 2 -222 3 -343 l2 -220
93 -3 92 -3 0 506 0 506 -136 -3 -137 -3 -59 -155 c-94 -249 -180 -464 -188
-473 -9 -11 -123 261 -245 586 l-18 47 -138 0 -139 0 0 -505z"/>
<path d="M4830 1595 l0 -505 100 0 100 0 0 505 0 505 -100 0 -100 0 0 -505z"/>
<path d="M2264 1811 c-42 -7 -114 -45 -151 -80 -36 -34 -83 -109 -100 -156
-11 -32 -14 -75 -11 -153 3 -106 3 -108 46 -179 49 -83 96 -121 193 -153 51
-18 80 -21 144 -18 98 6 158 33 230 108 50 51 50 51 29 69 -11 9 -46 25 -76
35 l-55 19 -39 -31 c-59 -47 -113 -59 -167 -38 -52 19 -80 47 -101 98 -29 68
-32 67 238 70 l241 3 -3 60 c-3 72 -19 150 -39 188 -24 49 -85 108 -137 134
-54 27 -164 38 -242 24z m164 -170 c30 -21 67 -94 57 -112 -12 -18 -285 -4
-285 15 0 21 51 87 83 107 40 25 102 21 145 -10z"/>
<path d="M4269 1806 c-107 -23 -200 -116 -236 -235 -11 -34 -17 -90 -17 -142
0 -77 3 -93 32 -152 41 -82 90 -131 172 -171 59 -28 74 -31 160 -31 84 1 101
4 153 30 59 29 137 103 137 130 0 16 -33 35 -92 54 -34 11 -39 10 -79 -18 -75
-55 -156 -60 -218 -14 -28 22 -59 76 -63 113 l-3 25 245 5 245 5 -4 69 c-7
145 -49 232 -141 295 -74 50 -173 63 -291 37z m154 -147 c59 -16 113 -117 71
-133 -27 -10 -274 6 -274 18 1 27 48 91 80 107 39 22 69 23 123 8z"/>
<path d="M5409 1810 c-97 -17 -189 -93 -235 -193 -27 -57 -29 -71 -29 -177 0
-107 2 -119 29 -173 37 -72 95 -130 166 -165 48 -24 67 -27 150 -27 84 0 102
3 157 29 63 29 158 116 151 137 -4 12 -113 59 -136 59 -8 0 -30 -13 -48 -30
-61 -53 -141 -59 -209 -14 -26 17 -75 102 -75 132 0 9 56 12 245 12 219 0 246
2 252 16 10 26 -14 179 -35 227 -27 60 -99 128 -158 150 -59 21 -162 29 -225
17z m145 -155 c17 -8 44 -34 59 -57 41 -64 29 -71 -135 -72 -128 -1 -133 0
-130 19 6 35 49 91 83 108 42 21 82 21 123 2z"/>
<path d="M6189 1810 c-25 -4 -60 -15 -77 -24 -50 -26 -133 -117 -161 -176 -23
-49 -26 -67 -26 -165 0 -99 3 -115 28 -166 41 -85 112 -151 196 -184 62 -24
79 -27 153 -23 142 8 249 78 307 198 24 50 26 66 26 180 0 105 -3 132 -21 170
-28 60 -107 138 -169 166 -57 25 -183 37 -256 24z m178 -180 c46 -28 75 -91
81 -175 3 -62 1 -76 -25 -124 -46 -87 -128 -115 -212 -71 -99 50 -124 253 -43
344 42 47 143 61 199 26z"/>
<path d="M7073 1808 c-26 -5 -57 -23 -79 -44 -20 -19 -38 -34 -40 -34 -1 0 -4
17 -6 38 l-3 37 -92 3 -93 3 0 -361 0 -361 93 3 92 3 6 220 c6 246 13 280 71
315 37 22 79 25 128 9 56 -20 63 -52 68 -316 l5 -233 100 0 100 0 -5 268 c-5
249 -7 271 -28 319 -50 118 -166 165 -317 131z"/>
</g>
</svg>
